
<svg version="1.1" id="Layer_1" xmlns="http://www.w3.org/2000/svg" xmlns:xlink="http://www.w3.org/1999/xlink" x="0px" y="0px"
	 viewBox="0 0 787 720" style="enable-background:new 0 0 787 720;" xml:space="preserve">
<style type="text/css">
	.st0{fill:#F6F6F6;}
	.st1{fill:#757575;}
</style>
<rect x="1.1" class="st0" width="785.9" height="720"/>
<g>
	<g>
		<path class="st1" d="M520.8,275.7H265c-3.4,0-5.9,2.7-5.9,5.9v194.7c0,3.4,2.7,5.9,5.9,5.9h256c3.4,0,5.9-2.7,5.9-5.9V281.6
			C526.9,278.2,524.2,275.7,520.8,275.7z M523.1,476.3c0,1.3-1.1,2.3-2.3,2.3H265c-1.3,0-2.3-1.1-2.3-2.3V281.6
			c0-1.3,1.1-2.3,2.3-2.3h256c1.3,0,2.3,1.1,2.3,2.3v194.7H523.1z"/>
	</g>
	<g>
		<path class="st1" d="M280.6,458.4h62.3v0.2c0,0,0.2,0,0.4-0.2h158.3V298h-221L280.6,458.4L280.6,458.4z M284.4,443.3l42.1-42.1
			c3.4-3.4,8-5.3,12.8-5.3s9.5,1.9,12.8,5.3l3.2,3.2l35.4,35.4c-27.2,6.9-43.6,13.3-48,15.2h-58.3V443.3L284.4,443.3z M498.1,422
			c-42.3,3.6-77.3,10.1-103.4,16.6L359.1,403l55.4-55.4c3.4-3.4,8-5.3,12.8-5.3s9.5,1.9,12.8,5.3l57.9,57.9V422H498.1z M353,454.6
			c20.4-7.4,71.4-22.9,145.1-29.1v29.1H353z M498.1,301.6v98.5l-55.2-55.2c-4-4-9.5-6.3-15.4-6.3s-11.4,2.3-15.4,6.3l-55.4,55.4
			l-1.9-1.9c-4-4-9.5-6.3-15.4-6.3s-11.4,2.3-15.4,6.3L284.6,438V301.6H498.1L498.1,301.6z"/>
	</g>
	<g>
		<path class="st1" d="M327.8,362.6c9.7,0,17.5-7.8,17.5-17.5s-7.8-17.5-17.5-17.5s-17.5,7.8-17.5,17.5S318.1,362.6,327.8,362.6z
			 M327.8,331.2c7.6,0,13.9,6.1,13.9,13.9c0,7.8-6.1,13.9-13.9,13.9s-13.9-6.1-13.9-13.9C313.9,337.4,320.2,331.2,327.8,331.2z"/>
	</g>
</g>
<g>
	<path class="st1" d="M310.8,530.7v5.4l-15.1,31h-9l15.1-29.3v-0.1h-16.7v-7H310.8L310.8,530.7z"/>
	<path class="st1" d="M318.5,561c1.1,0.1,2,0.1,3.7,0c2.6-0.2,5.2-0.9,7.2-2.2c2.4-1.6,3.9-4,4.6-6.7l-0.2-0.1
		c-1.6,1.7-4,2.6-7.3,2.6c-6.2,0-11.4-4.3-11.4-11.4c0-7.1,5.7-13.1,13.7-13.1c9.3,0,13.8,7.2,13.8,15.7c0,7.6-2.4,13.1-6.4,16.8
		c-3.5,3.2-8.2,4.9-13.9,5.1c-1.4,0.1-2.9,0.1-3.9,0L318.5,561L318.5,561z M323.6,542.7c0,3.2,1.7,5.9,5.1,5.9
		c2.3,0,3.9-1.1,4.7-2.4c0.3-0.5,0.5-1.1,0.5-2.1c0-3.9-1.4-7.7-5.3-7.7C325.7,536.4,323.6,538.9,323.6,542.7z"/>
	<path class="st1" d="M373.9,548.8c0,11.2-4.5,19-13.9,19s-13.5-8.5-13.6-18.8c0-10.5,4.5-18.9,13.9-18.9
		C370.1,530.1,373.9,538.8,373.9,548.8z M354.9,549c-0.1,8.4,2,12.4,5.3,12.4s5.1-4.1,5.1-12.4c0-8.1-1.7-12.4-5.1-12.4
		C357,536.6,354.9,540.6,354.9,549z"/>
	<path class="st1" d="M385.6,539.8l2.7,4.5c0.8,1.4,1.5,2.8,2.2,4.1h0.1c0.7-1.4,1.4-2.8,2.1-4.2l2.4-4.4h9.3l-9,13.1l9.1,14.3H395
		l-2.8-4.9c-0.8-1.3-1.4-2.8-2.1-4.1h-0.2c-0.7,1.4-1.4,2.8-2.1,4.1l-2.6,4.9h-9.3l9.3-13.9l-9.1-13.5H385.6z"/>
	<path class="st1" d="M433.3,530.7v5.4l-15.1,31h-9l15.1-29.3v-0.1h-16.7v-7H433.3L433.3,530.7z"/>
	<path class="st1" d="M438.3,567.2v-5.1l4.7-4.3c8-7.1,11.8-11.2,12-15.5c0-3-1.8-5.3-6-5.3c-3.2,0-5.9,1.6-7.8,3l-2.4-6.1
		c2.8-2.1,7-3.7,12-3.7c8.2,0,12.8,4.8,12.8,11.4c0,6.1-4.4,11-9.7,15.7l-3.4,2.8v0.1h13.7v7h-25.8l0,0H438.3z"/>
	<path class="st1" d="M496.3,548.8c0,11.2-4.5,19-13.9,19s-13.5-8.5-13.6-18.8c0-10.5,4.5-18.9,13.9-18.9
		C492.5,530.1,496.3,538.8,496.3,548.8z M477.4,549c-0.1,8.4,2,12.4,5.3,12.4s5.1-4.1,5.1-12.4c0-8.1-1.7-12.4-5.1-12.4
		C479.5,536.6,477.4,540.6,477.4,549z"/>
</g>
</svg>
