<svg version="1.2" baseProfile="tiny-ps" xmlns="http://www.w3.org/2000/svg" viewBox="0 0 100 100" width="100" height="100">
	<title>user_icon-svg</title>
	<style>
		tspan { white-space:pre }
		.s0 { fill: #eaeaea } 
		.s1 { fill: #ababab } 
	</style>
	<g id="Folder 1">
		<path id="Layer" class="s0" d="m50 95.24c-25.02 0-45.24-20.22-45.24-45.24c0-25.02 20.22-45.24 45.24-45.24c25.02 0 45.24 20.22 45.24 45.24c0 25.02-20.22 45.24-45.24 45.24z" />
		<g id="Layer">
			<path id="Layer" class="s1" d="m50 49.55h0.54c4.98 0 9.77 1.99 13.3 5.52c3.53 3.53 5.52 8.32 5.52 13.3v1.54c0 1.09-0.45 2.17-1.27 2.99c-0.81 0.81-1.9 1.27-2.99 1.27h-29.77c-1.09 0-2.17-0.45-2.99-1.27c-0.81-0.81-1.27-1.9-1.27-2.99v-1.54c0-4.98 1.99-9.77 5.52-13.3c3.53-3.53 8.32-5.52 13.39-5.52v0z" />
			<path id="Layer" class="s1" d="m59.77 35.52c0 5.25-4.25 9.5-9.5 9.5c-5.25 0-9.59-4.25-9.59-9.5c0-5.25 4.25-9.5 9.5-9.5c5.25 0 9.59 4.25 9.59 9.5z" />
		</g>
	</g>
</svg>